<?xml version="1.0" encoding="UTF-8"?>
<svg xmlns="http://www.w3.org/2000/svg" xmlns:xlink="http://www.w3.org/1999/xlink" width="15pt" height="15pt" viewBox="0 0 15 15" version="1.1">
<g id="surface1">
<path style=" stroke:none;fill-rule:nonzero;fill:rgb(185,185,184);fill-opacity:1;" d="M 7.5 8.75 C 8.535156 8.75 9.367188 7.910156 9.367188 6.875 L 9.375 3.125 C 9.375 2.085938 8.539062 1.25 7.5 1.25 C 6.464844 1.25 5.625 2.085938 5.625 3.125 L 5.625 6.875 C 5.625 7.910156 6.464844 8.75 7.5 8.75 Z M 10.8125 6.875 C 10.8125 8.75 9.226562 10.0625 7.5 10.0625 C 5.773438 10.0625 4.1875 8.75 4.1875 6.875 L 3.125 6.875 C 3.125 9.007812 4.824219 10.773438 6.875 11.074219 L 6.875 13.125 L 8.125 13.125 L 8.125 11.074219 C 10.175781 10.773438 11.875 9.007812 11.875 6.875 Z M 10.8125 6.875 "/>
</g>
</svg>
