<!-- Generated by IcoMoon.io -->
<svg version="1.1" xmlns="http://www.w3.org/2000/svg" width="21" height="32" viewBox="0 0 21 32">
<title>mic</title>
<path d="M20.576 12.576v2.272q0 3.968-2.624 6.88t-6.528 3.328v2.368h4.576q0.48 0 0.8 0.352t0.352 0.8-0.352 0.8-0.8 0.352h-11.424q-0.48 0-0.8-0.352t-0.352-0.8 0.352-0.8 0.8-0.352h4.576v-2.368q-3.872-0.416-6.528-3.328t-2.624-6.88v-2.272q0-0.48 0.352-0.8t0.8-0.352 0.8 0.352 0.32 0.8v2.272q0 3.296 2.368 5.664t5.632 2.336 5.664-2.336 2.336-5.664v-2.272q0-0.48 0.352-0.8t0.8-0.352 0.8 0.352 0.352 0.8zM16 5.728v9.12q0 2.368-1.664 4.032t-4.064 1.696-4.032-1.696-1.664-4.032v-9.12q0-2.368 1.664-4.064t4.032-1.664 4.064 1.664 1.664 4.064z"></path>
</svg>
