<!-- Generated by IcoMoon.io -->
<svg version="1.1" xmlns="http://www.w3.org/2000/svg" width="25" height="32" viewBox="0 0 25 32">
<title>mute</title>
<path d="M4.832 16.864l-1.792 1.824q-0.768-1.856-0.768-3.84v-2.272q0-0.48 0.352-0.8t0.8-0.352 0.8 0.352 0.352 0.8v2.272q0 0.96 0.256 2.016zM24.736 6.112l-6.464 6.464v2.272q0 2.368-1.664 4.032t-4.032 1.696q-0.992 0-1.952-0.352l-1.696 1.728q1.728 0.896 3.648 0.896 3.296 0 5.664-2.336t2.336-5.664v-2.272q0-0.48 0.352-0.8t0.8-0.352 0.8 0.352 0.32 0.8v2.272q0 3.968-2.624 6.88t-6.496 3.328v2.368h4.544q0.48 0 0.832 0.352t0.32 0.8-0.32 0.8-0.832 0.352h-11.424q-0.448 0-0.8-0.352t-0.32-0.8 0.32-0.8 0.8-0.352h4.576v-2.368q-2.24-0.224-4.192-1.44l-4.544 4.544q-0.16 0.192-0.416 0.192t-0.384-0.192l-1.472-1.472q-0.192-0.16-0.192-0.416t0.192-0.384l22.048-22.048q0.16-0.192 0.384-0.192t0.416 0.192l1.472 1.472q0.192 0.16 0.192 0.416t-0.192 0.384zM17.952 3.776l-11.104 11.072v-9.12q0-2.368 1.696-4.064t4.032-1.664q1.824 0 3.296 1.056t2.080 2.72z"></path>
</svg>
