<?xml version="1.0" encoding="UTF-8"?>
<svg xmlns="http://www.w3.org/2000/svg" xmlns:xlink="http://www.w3.org/1999/xlink" width="15pt" height="15pt" viewBox="0 0 15 15" version="1.1">
<g id="surface1">
<path style=" stroke:none;fill-rule:nonzero;fill:rgb(82,82,80);fill-opacity:1;" d="M 11.875 6.875 L 10.8125 6.875 C 10.8125 7.339844 10.714844 7.769531 10.539062 8.15625 L 11.308594 8.925781 C 11.664062 8.316406 11.875 7.621094 11.875 6.875 Z M 9.363281 6.976562 C 9.363281 6.941406 9.375 6.910156 9.375 6.875 L 9.375 3.125 C 9.375 2.085938 8.535156 1.25 7.5 1.25 C 6.464844 1.25 5.625 2.085938 5.625 3.125 L 5.625 3.238281 Z M 2.671875 1.875 L 1.875 2.671875 L 5.632812 6.429688 L 5.632812 6.878906 C 5.632812 7.914062 6.464844 8.753906 7.5 8.753906 C 7.640625 8.753906 7.777344 8.734375 7.90625 8.707031 L 8.941406 9.742188 C 8.496094 9.949219 8.003906 10.066406 7.5 10.066406 C 5.773438 10.066406 4.1875 8.753906 4.1875 6.878906 L 3.125 6.878906 C 3.125 9.011719 4.824219 10.773438 6.875 11.078125 L 6.875 13.125 L 8.125 13.125 L 8.125 11.074219 C 8.691406 10.992188 9.226562 10.792969 9.710938 10.511719 L 12.328125 13.125 L 13.125 12.332031 Z M 2.671875 1.875 "/>
</g>
</svg>
