<!-- Generated by IcoMoon.io -->
<svg version="1.1" xmlns="http://www.w3.org/2000/svg" width="878" height="1024" viewBox="0 0 878 1024">
<title>hand-paper-o</title>
<g id="icomoon-ignore">
</g>
<path d="M470.296 483.283v57.434q0 1.025-0.731 1.829t-1.899 0.806h-20.826q-1.096 0-1.829-0.806t-0.806-1.829v-57.434q0-1.025 0.806-1.829t1.829-0.806h20.826q1.096 0 1.899 0.806t0.731 1.829zM433.757 483.283v57.434q0 1.025-0.731 1.829t-1.899 0.806h-20.826q-1.096 0-1.829-0.806t-0.806-1.829v-57.434q0-1.025 0.806-1.829t1.829-0.806h20.826q1.096 0 1.899 0.806t0.731 1.829z"></path>
</svg>
