<svg width="100" height="100" xmlns="http://www.w3.org/2000/svg">

 <g>
  <title>background</title>
  <rect fill="none" id="canvas_background" height="402" width="582" y="-1" x="-1"/>
 </g>
 <g>
  <title>Layer 1</title>
  <path fill="#1eb265" id="svg_1" d="m95.894997,48.210999l-89.999997,-44.999999c-0.62,-0.31 -1.356,-0.277 -1.946,0.088c-0.59,0.364 -0.949,1.008 -0.949,1.701l0,90c0,0.693001 0.359,1.336998 0.949,1.700996c0.321,0.199005 0.685,0.299004 1.051,0.299004c0.306,0 0.612,-0.07 0.895,-0.210999l89.999997,-45c0.677002,-0.339001 1.105003,-1.032001 1.105003,-1.789001s-0.428001,-1.450001 -1.105003,-1.789001zm-88.894997,43.553001l0,-83.528l83.528,41.764l-83.528,41.764z"/>
 </g>
</svg>